<?xml version="1.0" encoding="UTF-8"?>
<!DOCTYPE svg PUBLIC "-//W3C//DTD SVG 1.1//EN" "http://www.w3.org/Graphics/SVG/1.1/DTD/svg11.dtd">
<!-- Creator: CorelDRAW 2019 (64-Bit) -->
<svg xmlns="http://www.w3.org/2000/svg" xml:space="preserve" width="300px" height="300px" version="1.1" style="shape-rendering:geometricPrecision; text-rendering:geometricPrecision; image-rendering:optimizeQuality; fill-rule:evenodd; clip-rule:evenodd"
viewBox="0 0 300 300"
 xmlns:xlink="http://www.w3.org/1999/xlink">
 <defs>
  <style type="text/css">
   <![CDATA[
    .str0 {stroke:#060603;stroke-width:0.9;stroke-miterlimit:10}
    .fil0 {fill:#A9ABAE;fill-rule:nonzero}
    .fil6 {fill:#727376;fill-rule:nonzero}
    .fil5 {fill:#4B4B4D;fill-rule:nonzero}
    .fil3 {fill:#060603;fill-rule:nonzero}
    .fil2 {fill:#390075;fill-rule:nonzero}
    .fil8 {fill:#9E87AF;fill-rule:nonzero}
    .fil4 {fill:#A68CC1;fill-rule:nonzero}
    .fil9 {fill:#C3B2D5;fill-rule:nonzero}
    .fil7 {fill:#CAC1C8;fill-rule:nonzero}
    .fil1 {fill:white;fill-rule:nonzero}
   ]]>
  </style>
 </defs>
 <g id="Layer_x0020_1">
  <metadata id="CorelCorpID_0Corel-Layer"/>
  <g id="_2520802669504">
   <path class="fil0" d="M202.82 237l-111.87 0c-5.11,0 -9.27,-4.16 -9.27,-9.27l0 -70.21c-2.28,-0.81 -3.92,-2.98 -3.92,-5.54l0 -14.78c0,-1.48 0.55,-2.83 1.45,-3.86 -0.67,-0.67 -1.19,-1.51 -1.48,-2.49l-4.2 -14.17c-0.93,-3.11 0.86,-6.4 3.97,-7.32l6.65 -1.97 3.96 13.37c0.42,1.41 1.51,2.44 2.82,2.85 -1.59,0.61 -2.72,2.16 -2.72,3.96l0 14.78c0,1.65 0.94,3.08 2.31,3.79 -0.01,0.12 -0.02,0.25 -0.02,0.38l0 71.59c0,5.11 4.15,9.26 9.26,9.26l111.87 0c0.16,0 0.31,0 0.46,-0.01l0 0.37c0,5.11 -4.16,9.27 -9.27,9.27zm-78.97 -113.68l-29.43 0 116.97 -34.67 0.7 2.37c0.45,1.51 0.29,3.1 -0.46,4.48 -0.75,1.38 -2,2.39 -3.51,2.84l-84.27 24.98z"/>
   <path class="fil1" d="M84.28 106.47l4.21 14.17c0.6,2.05 2.75,3.21 4.79,2.61l123.08 -36.49c2.04,-0.6 3.21,-2.75 2.6,-4.79l-4.2 -14.18c-0.6,-2.04 -2.75,-3.2 -4.8,-2.6l-123.07 36.49c-2.05,0.6 -3.21,2.75 -2.61,4.79z"/>
   <path class="fil2" d="M211.07 65.43c-0.33,0 -0.67,0.04 -0.99,0.14l-123.08 36.48c-0.89,0.27 -1.62,0.86 -2.06,1.67 -0.44,0.82 -0.54,1.75 -0.28,2.64l4.2 14.17c0.54,1.83 2.48,2.89 4.31,2.34l123.08 -36.48c1.83,-0.55 2.88,-2.48 2.34,-4.31l-4.21 -14.17c-0.26,-0.89 -0.85,-1.62 -1.67,-2.06 -0.51,-0.28 -1.07,-0.42 -1.64,-0.42zm-118.88 58.37c-1.84,0 -3.53,-1.2 -4.08,-3.04l-4.2 -14.18c-0.32,-1.09 -0.2,-2.23 0.34,-3.23 0.54,-1 1.44,-1.73 2.53,-2.05l123.07 -36.48c1.09,-0.33 2.24,-0.21 3.24,0.34 1,0.54 1.72,1.44 2.05,2.52l4.2 14.18c0.66,2.24 -0.62,4.61 -2.87,5.28l-123.08 36.48c-0.4,0.12 -0.8,0.18 -1.2,0.18z"/>
   <path class="fil3" d="M108.26 118.8l17.12 -5.07 -25.07 -16.03 -13.42 3.98c-1.45,0.43 -1.72,2.36 -0.45,3.17l21.82 13.95z"/>
   <polygon class="fil3" points="142.4,108.69 159.52,103.61 134.45,87.58 117.33,92.66 "/>
   <polygon class="fil3" points="177.03,98.42 194.15,93.34 169.09,77.31 151.97,82.39 "/>
   <path class="fil3" d="M186.39 72.18l25.07 16.04 3.52 -1.05c2.8,-0.83 4.4,-3.78 3.57,-6.58l-1.41 -4.77 -13.63 -8.71 -17.12 5.07z"/>
   <path class="fil1" d="M89.45 121.67c-0.26,-0.33 -0.46,-0.71 -0.59,-1.14l-4.2 -14.17c-0.01,-0.05 -0.03,-0.1 -0.04,-0.15 -0.13,-1.14 0.26,-2.26 1.02,-3.07 -0.08,0.64 0.17,1.31 0.8,1.71l1.55 1c-1.6,0.83 -2.44,2.71 -1.9,4.51l3.36 11.31zm15.58 -20.95l-4.14 -2.65 17.02 -5.04 4.14 2.65 -17.02 5.04z"/>
   <path class="fil4" d="M89.65 122.36c-0.31,-0.38 -0.54,-0.82 -0.69,-1.31l-4.2 -14.17c-0.07,-0.22 -0.11,-0.45 -0.14,-0.67 0.01,0.05 0.03,0.1 0.04,0.15l4.2 14.17c0.13,0.43 0.33,0.81 0.59,1.14l0.2 0.69z"/>
   <path class="fil5" d="M87.99 105.85l-1.55 -1c-0.63,-0.4 -0.88,-1.07 -0.8,-1.71 0.46,-0.48 1.04,-0.86 1.72,-1.06l13.53 -4.01 4.14 2.65 -16.34 4.84c-0.24,0.08 -0.48,0.17 -0.7,0.29z"/>
   <path class="fil1" d="M139.17 90.6l-4.14 -2.65 17.52 -5.19 4.14 2.65 -17.52 5.19zm34.64 -10.27l-4.14 -2.64 17.3 -5.13 4.14 2.64 -17.3 5.13z"/>
   <path class="fil1" d="M208.24 70.13l-4.15 -2.65 6.35 -1.88c0.32,-0.1 0.64,-0.15 0.96,-0.16 0.46,0.05 0.9,0.18 1.31,0.41 0.82,0.44 1.41,1.17 1.67,2.06l0.47 1.56c-0.59,-0.35 -1.27,-0.55 -1.98,-0.55 -0.36,0 -0.73,0.05 -1.1,0.16l-3.53 1.05z"/>
   <path class="fil4" d="M215.88 70.37c-0.29,-0.36 -0.64,-0.67 -1.03,-0.9l-0.47 -1.56c-0.26,-0.89 -0.85,-1.62 -1.67,-2.06 -0.41,-0.23 -0.85,-0.36 -1.31,-0.41 0.05,0 0.09,0 0.14,0 1.66,0 3.2,1.09 3.7,2.76l0.64 2.17z"/>
   <polygon class="fil5" points="122.05,95.68 117.91,93.03 135.03,87.95 139.17,90.6 "/>
   <polygon class="fil5" points="156.69,85.41 152.55,82.76 169.67,77.69 173.81,80.33 "/>
   <polygon class="fil5" points="191.11,75.2 186.97,72.56 204.09,67.48 208.24,70.13 "/>
   <path class="fil6" d="M218.46 146.52l0 71.59c0,1.81 -0.7,3.47 -1.87,4.69l0 0.01c-1.25,1.31 -3,2.13 -4.96,2.13l-111.87 0c-3.77,0 -6.83,-3.06 -6.83,-6.83l0 -71.59 125.53 0z"/>
   <path class="fil2" d="M93.32 146.91l0 71.2c0,3.55 2.89,6.44 6.44,6.44l111.87 0c1.74,0 3.36,-0.68 4.58,-1.92l0.09 -0.1c1.14,-1.19 1.77,-2.76 1.77,-4.42l0 -71.2 -124.75 0zm118.31 78.42l-111.87 0c-3.98,0 -7.23,-3.24 -7.23,-7.22l0 -71.98 126.33 0 0 71.98c0,1.81 -0.67,3.53 -1.88,4.84l0 0 -0.11 0.13c-1.38,1.45 -3.24,2.25 -5.24,2.25z"/>
   <path class="fil7" d="M211.63 222.5l-0.13 0c1,-1.19 1.6,-2.72 1.6,-4.39l0 -67.76 2.93 -0.2 0 67.96c0,2.42 -1.97,4.39 -4.4,4.39z"/>
   <path class="fil3" d="M95.37 148.95l0 69.16c0,2.42 1.97,4.39 4.39,4.39l111.87 0c2.43,0 4.4,-1.97 4.4,-4.39l0 -69.16 -120.66 0zm116.26 78.42l-111.87 0c-5.11,0 -9.26,-4.15 -9.26,-9.26l0 -71.59c0,-1.35 1.09,-2.44 2.43,-2.44l125.53 0c1.35,0 2.44,1.09 2.44,2.44l0 71.59c0,5.11 -4.16,9.26 -9.27,9.26z"/>
   <path class="fil1" d="M224.69 127.57l0 14.78c0,2.13 -1.73,3.86 -3.86,3.86l-128.37 0c-2.13,0 -3.86,-1.73 -3.86,-3.86l0 -14.78c0,-2.13 1.73,-3.86 3.86,-3.86l128.37 0c2.13,0 3.86,1.73 3.86,3.86z"/>
   <path class="fil2" d="M92.46 124.1c-1.91,0 -3.47,1.56 -3.47,3.47l0 14.78c0,1.91 1.56,3.47 3.47,3.47l128.37 0c1.91,0 3.47,-1.56 3.47,-3.47l0 -14.78c0,-1.91 -1.56,-3.47 -3.47,-3.47l-128.37 0zm128.37 22.5l-128.37 0c-2.34,0 -4.25,-1.9 -4.25,-4.25l0 -14.78c0,-2.34 1.91,-4.25 4.25,-4.25l128.37 0c2.34,0 4.25,1.91 4.25,4.25l0 14.78c0,2.35 -1.91,4.25 -4.25,4.25z"/>
   <path class="fil3" d="M205.21 146.21l-17.86 0 19.48 -22.49 14 0c1.51,0 2.32,1.77 1.33,2.91l-16.95 19.58z"/>
   <polygon class="fil3" points="169.6,146.21 151.74,146.21 171.22,123.72 189.08,123.72 "/>
   <polygon class="fil3" points="133.47,146.21 115.62,146.21 135.1,123.72 152.95,123.72 "/>
   <path class="fil3" d="M117.05 123.71l-19.48 22.5 -2.74 0c-3.44,0 -6.23,-2.79 -6.23,-6.22l0 -4.05 10.59 -12.23 17.86 0z"/>
   <path class="fil1" d="M224.3 129.85c-0.58,-1.17 -1.72,-2 -3.07,-2.14l0.93 -1.08c0.6,-0.69 0.54,-1.61 0.06,-2.23 1.22,0.53 2.08,1.76 2.08,3.17l0 2.28zm-20.91 -2.16l-17.75 0 3.1 -3.59 17.75 0 -3.1 3.59zm-35.61 0l-18.27 0 3.11 -3.59 18.27 0 -3.11 3.59zm-36.12 0l-18.05 0 3.1 -3.59 18.05 0 -3.1 3.59z"/>
   <path class="fil4" d="M224.69 131.55c0,-0.62 -0.14,-1.19 -0.39,-1.7l0 -2.28c0,-1.41 -0.86,-2.64 -2.08,-3.17 -0.31,-0.41 -0.79,-0.68 -1.39,-0.68l-14 0 -0.34 0.38 -17.75 0 0.34 -0.38 -17.86 0 -0.33 0.38 -18.27 0 0.33 -0.38 -17.85 0 -0.34 0.38 -18.05 0 0.34 -0.39 103.78 0c2.13,0 3.86,1.73 3.86,3.86l0 3.98z"/>
   <path class="fil5" d="M221.23 127.71c-0.13,-0.01 -0.26,-0.02 -0.4,-0.02l-17.44 0 3.1 -3.59 0.34 -0.38 14 0c0.6,0 1.08,0.27 1.39,0.68 0.48,0.62 0.54,1.54 -0.06,2.23l-0.93 1.08z"/>
   <polygon class="fil5" points="185.64,127.69 167.78,127.69 170.89,124.1 171.22,123.72 189.08,123.72 188.74,124.1 "/>
   <path class="fil1" d="M88.99 129.85l0 -2.28c0,-1.91 1.56,-3.47 3.47,-3.47l6.39 0 -3.1 3.59 -3.29 0c-1.52,0 -2.84,0.88 -3.47,2.16z"/>
   <path class="fil4" d="M88.6 131.55l0 -3.98c0,-2.13 1.73,-3.86 3.86,-3.86l6.73 0 -0.34 0.39 -6.39 0c-1.91,0 -3.47,1.56 -3.47,3.47l0 2.28c-0.25,0.51 -0.39,1.08 -0.39,1.7z"/>
   <polygon class="fil5" points="149.51,127.69 131.66,127.69 134.76,124.1 135.1,123.72 152.95,123.72 152.62,124.1 "/>
   <polygon class="fil5" points="113.61,127.69 95.75,127.69 98.85,124.1 99.19,123.71 117.05,123.71 116.71,124.1 "/>
   <path class="fil1" d="M200.89 166.01l-89.28 0c-0.9,0 -1.62,-0.72 -1.62,-1.62 0,-0.9 0.72,-1.62 1.62,-1.62l89.28 0c0.9,0 1.62,0.72 1.62,1.62 0,0.9 -0.72,1.62 -1.62,1.62z"/>
   <path class="fil1" d="M198.8 181.08l-89.28 0c-0.89,0 -1.62,-0.73 -1.62,-1.63 0,-0.89 0.73,-1.62 1.62,-1.62l89.28 0c0.9,0 1.63,0.73 1.63,1.62 0,0.9 -0.73,1.63 -1.63,1.63z"/>
   <path class="fil1" d="M199.5 203.8l-89.28 0c-0.9,0 -1.62,-0.73 -1.62,-1.63 0,-0.89 0.72,-1.62 1.62,-1.62l89.28 0c0.9,0 1.62,0.73 1.62,1.62 0,0.9 -0.72,1.63 -1.62,1.63z"/>
   <path class="fil1" d="M135.96 200.55l38.69 0 0 -19.47 -38.69 0 0 19.47zm40.31 3.25l-41.93 0c-0.9,0 -1.63,-0.73 -1.63,-1.63l0 -22.72c0,-0.89 0.73,-1.62 1.63,-1.62l41.93 0c0.9,0 1.62,0.73 1.62,1.62l0 22.72c0,0.9 -0.72,1.63 -1.62,1.63z"/>
   <path class="fil5" d="M201.4 222.5l-101.64 0c-2.42,0 -4.39,-1.97 -4.39,-4.39l0 -69.16 117.73 0 0 1.4 -93.63 6.19c-9.95,0.66 -16.6,10.47 -13.62,19.98 3.11,9.91 8.48,17.79 15.69,24.03l-11.32 0c-0.9,0 -1.62,0.73 -1.62,1.62 0,0.9 0.72,1.63 1.62,1.63l15.44 0c17.87,12.84 44.81,17.56 75.74,18.7z"/>
   <polygon class="fil8" points="213.1,150.35 213.1,148.95 216.03,148.95 216.03,150.15 "/>
   <path class="fil3 str0" d="M211.63 224.94l-111.87 0c-3.77,0 -6.83,-3.06 -6.83,-6.83l0 -71.51 62.64 0 62.89 0.69 0 2.7 -2.43 0.16 0 -1.2 -120.66 0 0 69.16c0,2.42 1.97,4.39 4.39,4.39l101.64 0c4.96,0.19 10.04,0.28 15.19,0.3l0 0.01c-1.25,1.31 -3,2.13 -4.96,2.13z"/>
   <path class="fil2" d="M155.57 146.6l-62.64 0 0 -0.68 0.01 0c0.59,0.19 1.23,0.29 1.89,0.29l2.74 0 0.21 -0.24 17.87 0.2 -0.03 0.04 3.81 0 36.14 0.39z"/>
   <polygon class="fil2" points="119.43,146.21 115.62,146.21 115.65,146.17 "/>
   <path class="fil2" d="M97.57 146.21l-2.74 0c-0.66,0 -1.3,-0.1 -1.89,-0.29l4.84 0.05 -0.21 0.24z"/>
   <path class="fil9" d="M125.66 203.8l-15.44 0c-0.9,0 -1.62,-0.73 -1.62,-1.63 0,-0.89 0.72,-1.62 1.62,-1.62l11.32 0c1.31,1.14 2.69,2.22 4.12,3.25z"/>
   <path class="fil3" d="M92.46 125.74c-1.01,0 -1.83,0.82 -1.83,1.83l0 14.78c0,1.01 0.82,1.83 1.83,1.83l128.37 0c1.01,0 1.83,-0.82 1.83,-1.83l0 -14.78c0,-1.01 -0.82,-1.83 -1.83,-1.83l-128.37 0zm128.37 22.5l-128.37 0c-3.25,0 -5.89,-2.64 -5.89,-5.89l0 -14.78c0,-3.25 2.64,-5.89 5.89,-5.89l128.37 0c3.25,0 5.89,2.64 5.89,5.89l0 14.78c0,3.25 -2.64,5.89 -5.89,5.89z"/>
   <path class="fil3" d="M211.06 67.06c-0.17,0 -0.35,0.03 -0.52,0.08l-123.08 36.48c-0.47,0.14 -0.85,0.45 -1.08,0.88 -0.24,0.43 -0.29,0.93 -0.15,1.39l4.2 14.18c0.29,0.97 1.31,1.52 2.27,1.23l123.08 -36.48c0.47,-0.14 0.86,-0.45 1.09,-0.88 0.23,-0.43 0.29,-0.93 0.15,-1.4l-4.2 -14.17c-0.14,-0.47 -0.46,-0.85 -0.89,-1.09 -0.27,-0.14 -0.56,-0.22 -0.87,-0.22zm-118.87 58.38c-2.54,0 -4.89,-1.66 -5.65,-4.22l-4.2 -14.17c-0.45,-1.51 -0.28,-3.1 0.47,-4.48 0.75,-1.38 1.99,-2.39 3.5,-2.84l123.08 -36.48c1.51,-0.45 3.1,-0.28 4.48,0.47 1.38,0.75 2.39,1.99 2.84,3.5l4.2 14.17c0.92,3.11 -0.86,6.4 -3.97,7.32l-123.08 36.48c-0.56,0.17 -1.12,0.25 -1.67,0.25z"/>
  </g>
 </g>
</svg>
